<svg width="20" height="20" viewBox="0 0 20 20" fill="none" xmlns="http://www.w3.org/2000/svg">
    <path d="M17.6647 15.5861C17.3774 16.2848 17.0374 16.928 16.6434 17.5193C16.1064 18.3255 15.6667 18.8835 15.3279 19.1934C14.8026 19.702 14.2398 19.9625 13.6371 19.9773C13.2045 19.9773 12.6827 19.8477 12.0753 19.5847C11.466 19.323 10.906 19.1934 10.394 19.1934C9.85695 19.1934 9.28102 19.323 8.66499 19.5847C8.04801 19.8477 7.55099 19.9847 7.17098 19.9983C6.59305 20.0242 6.017 19.7563 5.442 19.1934C5.07501 18.8563 4.61598 18.2786 4.06607 17.4601C3.47607 16.586 2.991 15.5725 2.61099 14.417C2.20402 13.1689 2 11.9603 2 10.7902C2 9.44984 2.27507 8.29382 2.82603 7.32509C3.25904 6.54696 3.83509 5.93315 4.55606 5.48255C5.27703 5.03195 6.05605 4.80232 6.89497 4.78763C7.35401 4.78763 7.95597 4.93714 8.70403 5.23095C9.44998 5.52576 9.92895 5.67526 10.1389 5.67526C10.2959 5.67526 10.828 5.50045 11.73 5.15194C12.583 4.82874 13.3029 4.69492 13.8927 4.74763C15.4908 4.88343 16.6915 5.54675 17.49 6.74177C16.0607 7.6536 15.3537 8.93072 15.3677 10.5691C15.3806 11.8452 15.8203 12.9071 16.6844 13.7503C17.0761 14.1417 17.5134 14.4441 18 14.6589C17.8945 14.9812 17.7831 15.2898 17.6647 15.5861ZM13.9994 0.400111C13.9994 1.40034 13.6524 2.33425 12.9606 3.19867C12.1258 4.22629 11.116 4.8201 10.021 4.7264C10.007 4.6064 9.99894 4.48011 9.99894 4.3474C9.99894 3.38718 10.396 2.35956 11.101 1.51934C11.453 1.09392 11.9006 0.740188 12.4435 0.458011C12.9852 0.180044 13.4976 0.0263202 13.9795 0C13.9936 0.133712 13.9994 0.267449 13.9994 0.400111Z" fill="black" />
</svg>
    