<svg width="120" height="120" viewBox="0 0 120 120" fill="none" xmlns="http://www.w3.org/2000/svg">
    <path d="M49.9484 84.2835C48.1685 86.2414 46.7445 87.8434 45.4096 89.3563C30.814 81.0796 24.4062 63.4582 30.1021 48.2396C35.9759 32.7542 52.6183 23.4985 68.6378 26.8803C84.2123 30.1732 94.9809 44.4128 94.536 61.3222C94.091 77.7867 82.3434 90.6023 65.5229 92.8272C62.23 93.2722 58.3141 94.9631 55.7332 89.1783C57.9582 88.5553 59.7381 87.6654 61.696 87.4874C73.7106 86.4194 83.8563 78.4097 87.2382 66.84C90.5311 55.8934 86.5262 45.2137 76.5586 37.56C74.9566 36.314 73.7106 34.5341 72.8207 33.5551C53.7753 31.1522 38.2008 35.4241 34.9079 56.5164C33.2169 67.908 38.0228 78.0537 49.9484 84.2835Z" fill="black" />
    <path d="M68.6378 37.293C70.5068 37.827 73.3546 37.738 75.1346 39.1619C83.5003 45.4807 87.6832 54.0245 85.8142 64.6151C84.0343 74.4938 77.3595 80.5456 68.1928 83.4825C57.3352 86.9534 45.5876 81.9696 40.0697 72.1799C34.1959 61.8562 36.3319 50.8206 44.8756 42.2768C50.3934 36.759 56.8012 34.8901 64.188 35.0681C65.4339 35.1571 66.6799 36.314 68.6378 37.293ZM79.4064 59.4533C79.3174 49.8416 70.9517 41.5649 61.251 41.4759C51.5504 41.3869 43.0956 50.6426 43.0956 61.3222C43.1846 69.777 52.8853 78.5877 61.963 78.3207C71.2187 78.0537 79.4954 69.154 79.4064 59.4533Z" fill="black" />
    <path d="M4.1149 49.9306C2.86894 66.3951 5.89484 81.4356 16.4855 94.8741C28.3221 109.826 43.3626 116.411 62.141 116.945C92.044 117.835 114.026 90.9583 117.23 69.332C117.497 67.374 118.298 65.5051 119.722 63.6362C119.722 66.3061 120.167 69.065 119.633 71.5569C112.691 104.397 81.7204 124.154 51.9063 119.259C28.1441 115.343 12.3916 101.193 4.0259 79.5666C0.822001 71.2009 2.33495 61.0552 1.80097 51.7105C1.71197 51.1766 3.31393 50.5536 4.1149 49.9306Z" fill="black" />
    <path d="M4.1149 49.9306C3.49192 48.3287 2.86894 46.8157 2.33496 45.2138C1.88997 44.8578 1.44499 44.5908 1 44.2348C6.51782 35.7801 12.0356 27.3253 17.6424 18.8706V18.7816C17.2865 20.3836 17.4645 22.3415 16.5745 23.4985C10.5227 31.5082 5.80584 39.9629 4.1149 49.9306Z" fill="black" />
    <path d="M79.8514 2.94012C73.9776 2.58414 68.1038 1.96116 62.23 1.87216C57.4242 1.78316 52.6183 2.31715 47.8125 2.58414C48.9694 1.69417 50.3044 -0.0857804 51.3723 0.00321671C60.806 0.804191 70.2397 1.96116 79.6734 3.02913C79.6734 3.11812 79.8514 2.94012 79.8514 2.94012Z" fill="black" />
    <path d="M17.5534 18.8706C22.4483 15.0437 27.3431 11.1278 32.327 7.38997C33.2169 6.76699 34.5519 6.678 35.6199 6.41101C35.5309 6.678 35.5309 7.03398 35.4419 7.38997C30.814 11.1278 26.1862 14.8657 21.4693 18.4256C20.5794 19.0486 18.8884 18.6926 17.5534 18.8706C17.5534 18.8706 17.5534 18.7816 17.5534 18.8706Z" fill="black" />
    <path d="M35.5309 7.30099C35.5309 6.945 35.6199 6.678 35.7089 6.32201C39.7137 5.07605 43.8076 3.83009 47.8124 2.67313C45.4095 3.83009 43.0956 5.07605 40.6927 6.23301C38.9127 7.12298 37.1328 8.10196 34.8189 9.25892C35.1749 8.36895 35.3529 7.83497 35.5309 7.30099Z" fill="black" />
    <path d="M53.8643 91.7592C52.7073 90.0683 51.8173 88.8223 50.8384 87.3984C51.6394 87.0424 52.7073 86.5084 54.5762 85.5294C54.3092 88.1104 54.0423 89.7123 53.8643 91.7592Z" fill="black" />
    <path d="M79.6734 3.11812C81.7204 3.91909 83.7673 4.80907 85.7252 5.61004C85.3692 6.14402 85.1022 6.67801 84.7463 7.21199C83.1443 5.78804 81.4534 4.36409 79.8514 3.02913C79.8514 2.94013 79.6734 3.11812 79.6734 3.11812Z" fill="black" />
</svg>